<svg id="Layer_1" data-name="Layer 1" xmlns="http://www.w3.org/2000/svg" viewBox="0 0 216 216"><defs><style>.cls-1{fill:#f5f4ea;}</style></defs><title>Space Icons Rasterized</title><path class="cls-1" d="M34.1,18s0,0,0,0c.15.41.34.8.5,1.21l1.07,2.31.4.87a1.53,1.53,0,0,0,.43.67,1,1,0,0,0,.4.09l1,.15,2.4.37c.27,0,.54.1.81.13s.54,0,.34.26a5.58,5.58,0,0,1-.57.61l-.74.77-1.48,1.54c-.36.38-.85.72-.73,1.32.09.41.14.83.21,1.25l.47,2.89c0,.3.14.58.18.88a5.08,5.08,0,0,1-.58-.27L36,31.77l-1.1-.61c-.24-.13-.69-.51-.94-.39l-.74.39c-.64.34-1.27.71-1.9,1.07a8.9,8.9,0,0,0-1.77,1.05s-.11.09-.16.05a.13.13,0,0,1,0-.15,5.82,5.82,0,0,0,.2-1L30,29.39c.06-.38.12-.76.18-1.14.1-.58-.31-.89-.67-1.26l-1.64-1.7-.81-.84a4.82,4.82,0,0,0-.35-.36l-.3-.28a23.24,23.24,0,0,0,2.73-.4,6.74,6.74,0,0,0,2.47-.56c.35-.2.39-.48.55-.83l.57-1.23,1.09-2.35C33.94,18.3,34,18.15,34.1,18Z"/><path class="cls-1" d="M52.45,61s0,0,.05,0c0,.43,0,.87-.07,1.3l0,2.54v1a1.53,1.53,0,0,0,.11.79,1,1,0,0,0,.32.25l.82.55,2,1.36c.23.15.45.33.68.46s.51.2.19.38a5.58,5.58,0,0,1-.78.31l-1,.38-2,.75c-.49.19-1.08.29-1.22.88-.1.41-.23.81-.35,1.21l-.82,2.81c-.08.29-.12.59-.21.87a5.08,5.08,0,0,1-.41-.49l-1.46-2.05-.73-1c-.16-.23-.4-.76-.69-.75l-.84,0c-.73,0-1.45.1-2.18.15a8.9,8.9,0,0,0-2,.2c-.06,0-.14,0-.17,0s0-.11,0-.15a5.82,5.82,0,0,0,.61-.81l1.6-2.33c.22-.32.43-.64.66-1,.34-.48.1-.94-.06-1.43l-.76-2.24-.37-1.1a4.82,4.82,0,0,0-.16-.48s-.16-.38-.15-.38a23.24,23.24,0,0,0,2.64.81,6.74,6.74,0,0,0,2.47.56c.4,0,.55-.27.85-.51l1-.86,2-1.65Z"/><path class="cls-1" d="M66.67,116.18s0,0,0,0c.4-.17.78-.37,1.19-.54l2.27-1.15.85-.43a1.53,1.53,0,0,0,.65-.46,1,1,0,0,0,.08-.4l.11-1,.28-2.41c0-.27.08-.55.1-.82s-.06-.54.24-.34a5.58,5.58,0,0,1,.64.55l.8.71,1.59,1.42c.39.35.76.83,1.35.68.41-.1.83-.17,1.24-.25l2.87-.57c.29-.06.58-.16.87-.21a5.08,5.08,0,0,1-.24.59l-1.15,2.24-.57,1.12c-.13.25-.48.71-.35,1s.27.48.42.72c.36.63.76,1.24,1.14,1.86a8.9,8.9,0,0,0,1.12,1.73s.09.11.06.16a.13.13,0,0,1-.15,0,5.82,5.82,0,0,0-1-.17l-2.81-.35-1.15-.14c-.59-.08-.88.34-1.24.71l-1.64,1.71-.81.84a4.82,4.82,0,0,0-.35.36l-.26.31a23.24,23.24,0,0,0-.5-2.72,6.74,6.74,0,0,0-.65-2.45c-.22-.34-.49-.37-.85-.52l-1.25-.52-2.38-1Z"/><path class="cls-1" d="M115.88,139.72s0,0,0-.05c.42.11.85.18,1.27.29l2.5.45.94.17a1.53,1.53,0,0,0,.8,0c.12,0,.21-.18.3-.27l.69-.71,1.68-1.75c.19-.2.4-.38.57-.59s.28-.47.4-.13a5.58,5.58,0,0,1,.17.82l.2,1c.13.7.27,1.4.4,2.1.1.52.1,1.12.66,1.36.39.16.76.36,1.14.55l2.63,1.28c.27.13.56.22.82.36a5.08,5.08,0,0,1-.55.32l-2.27,1.09-1.13.54c-.25.12-.81.27-.86.55s-.08.55-.11.83c-.09.72-.15,1.45-.22,2.17a8.9,8.9,0,0,0-.15,2c0,.06,0,.14-.05.16s-.1,0-.14-.07a5.82,5.82,0,0,0-.7-.74l-2-2-.83-.81c-.42-.42-.9-.26-1.42-.18l-2.34.36-1.15.18a4.82,4.82,0,0,0-.5.08l-.4.09a23.24,23.24,0,0,0,1.25-2.46,6.74,6.74,0,0,0,1-2.34c0-.4-.17-.59-.36-.93l-.68-1.17-1.29-2.24C116,140,116,139.88,115.88,139.72Z"/><path class="cls-1" d="M121.71,179.22s0,0,0,0c-.21.38-.37.78-.58,1.17l-1,2.33-.39.87a1.53,1.53,0,0,0-.21.77,1,1,0,0,0,.19.36l.53.83,1.3,2c.15.23.28.48.44.69s.39.38,0,.42a5.58,5.58,0,0,1-.84,0l-1.07-.05-2.13-.1c-.52,0-1.11-.17-1.47.32-.25.34-.53.65-.8,1l-1.86,2.25c-.19.23-.34.49-.54.71a5.08,5.08,0,0,1-.18-.61l-.52-2.46-.26-1.23c-.06-.27-.07-.85-.33-1l-.78-.3c-.68-.26-1.37-.49-2.06-.73a8.9,8.9,0,0,0-2-.63c-.06,0-.14,0-.14-.09s0-.1.1-.12a5.82,5.82,0,0,0,.88-.51l2.4-1.5,1-.61c.51-.31.46-.82.51-1.33l.2-2.36.1-1.16a4.82,4.82,0,0,0,0-.5s0-.41,0-.41a23.24,23.24,0,0,0,2.1,1.79,6.74,6.74,0,0,0,2,1.49c.38.12.61,0,1-.13l1.3-.38,2.48-.73Z"/><path class="cls-1" d="M180.53,146.3s0,0,0,0c.36.25.73.47,1.09.72l2.18,1.3.82.49a1.53,1.53,0,0,0,.74.31,1,1,0,0,0,.38-.15l.89-.43,2.19-1c.25-.12.51-.22.74-.36s.43-.34.42,0a5.58,5.58,0,0,1-.13.83l-.18,1.05c-.12.7-.24,1.4-.36,2.11-.09.52-.3,1.08.15,1.5s.59.61.88.91l2,2.12c.21.22.45.4.64.62a5.08,5.08,0,0,1-.63.11l-2.51.23-1.25.11c-.28,0-.86,0-1,.21s-.27.49-.39.74c-.34.64-.65,1.3-1,2a8.9,8.9,0,0,0-.86,1.87c0,.06,0,.13-.1.13s-.09-.06-.1-.11a5.82,5.82,0,0,0-.4-.94L183.61,158c-.16-.35-.33-.7-.49-1-.24-.54-.76-.56-1.26-.66l-2.32-.48-1.14-.24a4.82,4.82,0,0,0-.49-.1l-.4-.06a23.24,23.24,0,0,0,2-1.87,6.74,6.74,0,0,0,1.73-1.86c.17-.36,0-.61,0-1l-.22-1.33-.43-2.55C180.57,146.65,180.55,146.48,180.53,146.3Z"/><path class="cls-1" d="M175.67,190.07s0,0,0-.05c.43.09.86.14,1.28.23l2.52.35.95.13a1.53,1.53,0,0,0,.8,0c.12,0,.21-.19.29-.28l.65-.74,1.61-1.82c.18-.2.38-.4.55-.62s.26-.48.4-.14a5.58,5.58,0,0,1,.21.81l.25,1c.16.69.32,1.39.49,2.08.12.51.15,1.11.72,1.33.39.15.78.33,1.16.5l2.68,1.17c.27.12.57.19.83.32a5.08,5.08,0,0,1-.54.35l-2.22,1.18-1.11.59c-.24.13-.8.3-.83.59s-.05.55-.07.83c-.06.72-.09,1.45-.13,2.18a8.9,8.9,0,0,0-.07,2.05c0,.06,0,.14,0,.16s-.11,0-.14-.06a5.82,5.82,0,0,0-.73-.71l-2.11-1.89-.86-.77c-.43-.4-.91-.22-1.42-.12l-2.32.46-1.14.23a4.82,4.82,0,0,0-.49.1l-.39.1a23.24,23.24,0,0,0,1.14-2.52,6.74,6.74,0,0,0,.87-2.38c0-.4-.19-.58-.4-.91l-.72-1.14-1.39-2.18Z"/><line class="cls-1" x1="38.57" y1="38" x2="46" y2="58.43"/><path class="cls-1" d="M39.25,41.38a1.5,1.5,0,0,1-1.41-1l-.68-1.88a1.5,1.5,0,1,1,2.82-1l.68,1.88a1.5,1.5,0,0,1-1.41,2Z"/><path class="cls-1" d="M42.89,51.38a1.5,1.5,0,0,1-1.41-1l-1.21-3.33a1.5,1.5,0,1,1,2.82-1l1.21,3.33a1.5,1.5,0,0,1-.9,1.92A1.48,1.48,0,0,1,42.89,51.38Z"/><path class="cls-1" d="M46,59.93a1.5,1.5,0,0,1-1.41-1l-.68-1.88a1.5,1.5,0,0,1,2.82-1l.68,1.88a1.5,1.5,0,0,1-1.41,2Z"/><line class="cls-1" x1="53.59" y1="79.31" x2="66.64" y2="106.65"/><path class="cls-1" d="M54.45,82.61a1.5,1.5,0,0,1-1.35-.85L52.24,80a1.5,1.5,0,0,1,2.71-1.29l.86,1.8a1.5,1.5,0,0,1-1.35,2.15Z"/><path class="cls-1" d="M62.95,100.41a1.5,1.5,0,0,1-1.35-.85l-1.42-3a1.5,1.5,0,0,1,2.71-1.29l1.42,3a1.5,1.5,0,0,1-1.35,2.15Zm-4.25-8.9a1.5,1.5,0,0,1-1.35-.85l-1.42-3a1.5,1.5,0,0,1,2.71-1.29l1.42,3a1.5,1.5,0,0,1-1.35,2.15Z"/><path class="cls-1" d="M66.64,108.15a1.5,1.5,0,0,1-1.35-.85l-.86-1.8a1.5,1.5,0,0,1,2.71-1.29L68,106a1.5,1.5,0,0,1-1.35,2.15Z"/><line class="cls-1" x1="81.41" y1="125.48" x2="111.77" y2="143.01"/><path class="cls-1" d="M83.14,128a1.49,1.49,0,0,1-.75-.2l-1.73-1a1.5,1.5,0,1,1,1.5-2.6l1.73,1a1.5,1.5,0,0,1-.75,2.8Z"/><path class="cls-1" d="M103.31,139.63a1.49,1.49,0,0,1-.75-.2l-3.36-1.94a1.5,1.5,0,1,1,1.5-2.6l3.36,1.94a1.5,1.5,0,0,1-.75,2.8ZM93.23,133.8a1.49,1.49,0,0,1-.75-.2l-3.36-1.94a1.5,1.5,0,1,1,1.5-2.6L94,131a1.5,1.5,0,0,1-.75,2.8Z"/><path class="cls-1" d="M111.77,144.51a1.49,1.49,0,0,1-.75-.2l-1.73-1a1.5,1.5,0,1,1,1.5-2.6l1.73,1a1.5,1.5,0,0,1-.75,2.8Z"/><line class="cls-1" x1="133.77" y1="148.16" x2="172.72" y2="152.53"/><path class="cls-1" d="M135.76,149.88h-.17l-2-.22a1.5,1.5,0,1,1,.33-3l2,.22a1.5,1.5,0,0,1-.17,3Z"/><path class="cls-1" d="M162,152.82h-.17l-4.37-.49a1.5,1.5,0,0,1,.33-3l4.37.49a1.5,1.5,0,0,1-.17,3Zm-13.12-1.47h-.17l-4.37-.49a1.5,1.5,0,0,1,.33-3l4.37.49a1.5,1.5,0,0,1-.17,3Z"/><path class="cls-1" d="M172.73,154h-.17l-2-.22a1.5,1.5,0,0,1,.34-3l2,.22a1.5,1.5,0,0,1-.17,3Z"/><line class="cls-1" x1="127.54" y1="188.22" x2="171.01" y2="193.1"/><path class="cls-1" d="M129.53,189.95h-.17l-2-.22a1.5,1.5,0,1,1,.33-3l2,.22a1.5,1.5,0,0,1-.17,3Z"/><path class="cls-1" d="M161.84,193.57h-.17l-3.59-.4a1.5,1.5,0,1,1,.33-3l3.59.4a1.5,1.5,0,0,1-.17,3Zm-10.77-1.21h-.17l-3.59-.4a1.5,1.5,0,0,1,.33-3l3.59.4a1.5,1.5,0,0,1-.17,3Zm-10.77-1.21h-.17l-3.59-.4a1.5,1.5,0,0,1,.33-3l3.59.4a1.5,1.5,0,0,1-.17,3Z"/><path class="cls-1" d="M171,194.6h-.17l-2-.22a1.5,1.5,0,0,1,.34-3l2,.22a1.5,1.5,0,0,1-.17,3Z"/><line class="cls-1" x1="121.69" y1="155.23" x2="117.77" y2="172.38"/><path class="cls-1" d="M121.25,158.68a1.48,1.48,0,0,1-.34,0,1.5,1.5,0,0,1-1.13-1.8l.45-2a1.5,1.5,0,1,1,2.92.67l-.45,2A1.5,1.5,0,0,1,121.25,158.68Z"/><path class="cls-1" d="M119.43,166.63a1.47,1.47,0,0,1-.34,0,1.5,1.5,0,0,1-1.13-1.8l.61-2.65a1.5,1.5,0,1,1,2.92.67l-.61,2.65A1.5,1.5,0,0,1,119.43,166.63Z"/><path class="cls-1" d="M117.77,173.88a1.48,1.48,0,0,1-.34,0,1.5,1.5,0,0,1-1.13-1.8l.45-2a1.5,1.5,0,1,1,2.92.67l-.45,2A1.5,1.5,0,0,1,117.77,173.88Z"/><line class="cls-1" x1="186.5" y1="164.72" x2="184.03" y2="182.14"/><path class="cls-1" d="M186.23,168.2H186a1.5,1.5,0,0,1-1.27-1.7l.28-2a1.5,1.5,0,1,1,3,.42l-.28,2A1.5,1.5,0,0,1,186.23,168.2Z"/><path class="cls-1" d="M185.08,176.28h-.21a1.5,1.5,0,0,1-1.27-1.7l.38-2.69a1.5,1.5,0,0,1,3,.42l-.38,2.69A1.5,1.5,0,0,1,185.08,176.28Z"/><path class="cls-1" d="M184,183.64h-.21a1.5,1.5,0,0,1-1.27-1.7l.28-2a1.5,1.5,0,1,1,3,.42l-.28,2A1.5,1.5,0,0,1,184,183.64Z"/></svg>