<svg id="Layer_1" data-name="Layer 1" xmlns="http://www.w3.org/2000/svg" viewBox="0 0 124.76 132.74"><defs><style>.cls-1{fill:#2c3b48;}.cls-2{fill:#f9f9da;}</style></defs><title>Galaxy</title><path class="cls-1" d="M101.16,60.44a18.42,18.42,0,0,1-.38,3.32C99.63,69.16,99.08,74,96.45,79A40.23,40.23,0,0,1,76.66,97.4C73,99,69,100.56,65,100.55c-3.68,0-7.56-.16-11.28-.42a27.39,27.39,0,0,1-8-2.34A40.43,40.43,0,0,1,27.6,83.21a44.54,44.54,0,0,1-5.46-10.6,33.16,33.16,0,0,1-1.48-5.93,39,39,0,0,1-.84-5.78c0-2.93,1-6.13,1.61-9a40.49,40.49,0,0,1,2.78-8.08A42.7,42.7,0,0,1,35,29.61c2.38-2,4.91-3.55,7.36-5.5,2.65-2.11,5-2.76,8.11-3.72,3.87-1.17,8.87-.79,12.87-.46A41.61,41.61,0,0,1,98.63,47,38.28,38.28,0,0,1,101.16,60.44Z"/><path class="cls-2" d="M65.58,34.25a1.27,1.27,0,0,1,0,.23,3.83,3.83,0,0,1-.3,1.05,2.77,2.77,0,0,1-1.36,1.27,2.07,2.07,0,0,1-.81.22l-.78,0a1.89,1.89,0,0,1-.55-.16,2.79,2.79,0,0,1-1.24-1,3.07,3.07,0,0,1-.38-.73,2.29,2.29,0,0,1-.1-.41,2.69,2.69,0,0,1-.06-.4,3.07,3.07,0,0,1,.11-.62,2.79,2.79,0,0,1,.19-.56,2.94,2.94,0,0,1,.74-1c.16-.14.34-.24.51-.38a1.47,1.47,0,0,1,.56-.26,2.54,2.54,0,0,1,.89,0,2.87,2.87,0,0,1,2.43,1.87A2.64,2.64,0,0,1,65.58,34.25Z"/><path class="cls-2" d="M38.82,58.48a2.12,2.12,0,0,1,0,.38,6.4,6.4,0,0,1-.5,1.75A4.63,4.63,0,0,1,36,62.73a3.46,3.46,0,0,1-1.34.36c-.42,0-.87,0-1.3,0a3.15,3.15,0,0,1-.92-.27,4.65,4.65,0,0,1-2.08-1.68,5.12,5.12,0,0,1-.63-1.22,3.81,3.81,0,0,1-.17-.68,4.48,4.48,0,0,1-.1-.66,5.13,5.13,0,0,1,.18-1,4.66,4.66,0,0,1,.32-.93,4.91,4.91,0,0,1,1.24-1.64c.27-.24.56-.41.85-.63a2.46,2.46,0,0,1,.93-.43,4.24,4.24,0,0,1,1.48-.05,4.78,4.78,0,0,1,4.05,3.12A4.4,4.4,0,0,1,38.82,58.48Z"/><path class="cls-2" d="M73.56,41.37a.88.88,0,0,1,0,.16,2.67,2.67,0,0,1-.21.73,1.93,1.93,0,0,1-.95.88,1.44,1.44,0,0,1-.56.15l-.54,0a1.31,1.31,0,0,1-.38-.11,1.94,1.94,0,0,1-.87-.7,2.14,2.14,0,0,1-.26-.51,1.59,1.59,0,0,1-.07-.28,1.87,1.87,0,0,1,0-.28,2.14,2.14,0,0,1,.08-.43,1.94,1.94,0,0,1,.13-.39,2,2,0,0,1,.52-.68c.11-.1.24-.17.35-.26a1,1,0,0,1,.39-.18,1.77,1.77,0,0,1,.62,0,2,2,0,0,1,1.69,1.3A1.84,1.84,0,0,1,73.56,41.37Z"/><path class="cls-2" d="M72.91,79.15a1.47,1.47,0,0,1,0,.27,4.45,4.45,0,0,1-.35,1.22,3.21,3.21,0,0,1-1.58,1.47,2.4,2.4,0,0,1-.93.25c-.29,0-.6,0-.9,0a2.19,2.19,0,0,1-.64-.19A3.23,3.23,0,0,1,67,81a3.56,3.56,0,0,1-.44-.85,2.65,2.65,0,0,1-.12-.47,3.11,3.11,0,0,1-.07-.46,3.56,3.56,0,0,1,.13-.72,3.24,3.24,0,0,1,.22-.65,3.41,3.41,0,0,1,.86-1.14c.19-.16.39-.28.59-.44a1.71,1.71,0,0,1,.65-.3,3,3,0,0,1,1,0,3.33,3.33,0,0,1,2.82,2.17A3.06,3.06,0,0,1,72.91,79.15Z"/></svg>